<?xml version="1.0" encoding="UTF-8"?>
<svg width="180" height="40" viewBox="0 0 180 40" fill="none" xmlns="http://www.w3.org/2000/svg">
  <defs>
    <linearGradient id="g" x1="0" y1="0" x2="180" y2="40" gradientUnits="userSpaceOnUse">
      <stop stop-color="#F97316"/>
      <stop offset="1" stop-color="#A855F7"/>
    </linearGradient>
  </defs>
  <!-- Emblem: stylized C + F forged together -->
  <g>
    <path d="M14 8c-5 0-9 4-9 12s4 12 9 12c3.5 0 6.5-1.7 8.6-4.7l-4.1-2.3c-1.1 1.5-2.6 2.3-4.5 2.3-3.2 0-5.3-2.7-5.3-7.3S10.8 13 14 13c1.9 0 3.4.8 4.5 2.3l4.1-2.3C20.5 9.7 17.5 8 14 8z" fill="url(#g)"/>
    <path d="M28 10h4v6h6v4h-6v10h-4V10z" fill="url(#g)"/>
  </g>
  <!-- Wordmark -->
  <g transform="translate(44,6)" fill="#ffffff">
    <text x="0" y="22" font-family="Segoe UI, Roboto, Helvetica, Arial, sans-serif" font-size="20" font-weight="800" letter-spacing="1">CLUTCH</text>
    <text x="86" y="22" font-family="Segoe UI, Roboto, Helvetica, Arial, sans-serif" font-size="20" font-weight="800" letter-spacing="1" fill="url(#g)">FORGE</text>
  </g>
</svg>
